<svg id="Layer_1" data-name="Layer 1" xmlns="http://www.w3.org/2000/svg" viewBox="0 0 966.88 966.88"><defs><style>.cls-1{fill:#0f141e;}.cls-2{fill:#fefefe;}.cls-3{fill:#272c34;}.cls-4{fill:#5b5f66;}.cls-5{fill:#262a33;}.cls-6{fill:#55585f;}.cls-7{fill:#54585f;}.cls-8{fill:#484b53;}.cls-9{fill:#353941;}.cls-10{fill:#2f333b;}.cls-11{fill:#a8aaae;}</style></defs><title>mylogo-normal</title><path class="cls-1" d="M683.21,734.65c1.86,3,.21,3.28-2.29,3.28-18,0-36-.17-54,.11-3.43,0-4.22-2.77-4.72-4.09-3-7.93-8.51-14.29-12.46-21.59-3.67-6.78-7.13-13.68-10.85-20.43-3.53-6.4-6.69-13-10.83-19.1a165.43,165.43,0,0,1-8.88-15.08c-4.63-8.69-9.85-17.07-14.2-25.89a225.26,225.26,0,0,0-11.41-19.55c-3.52-5.64-6.31-11.67-10-17.21-3.28-5-5.74-10.43-8.68-15.61q-6.07-10.7-12.33-21.26-5.75-9.72-11.65-19.34c-5.44-8.84-9.21-18.61-15.58-27-3.67-4.82-6.34-10.4-9.39-15.67-2.94-5.06-5.23-10.63-8.87-15.1-2.84-3.48-3.92-7.57-6.11-11.2-6.47-10.74-12.76-21.59-19.26-32.31-5-8.32-9.85-17-14.33-25.69-4.37-8.54-9.83-16.52-14.25-25.05-2.36-4.54-6.2-8.06-8-13.37-5,8-9.65,15.34-13.61,23.12a136.86,136.86,0,0,1-8.66,15.24c-4,5.91-7.23,12.32-11,18.36s-7.24,12.28-10.86,18.43c-6.91,11.76-12.47,24.23-20.31,35.55-4.36,6.29-7.66,13.56-11.7,20.22-5.37,8.85-10.27,18-15.44,26.93-5.26,9.11-11.13,17.88-16.09,27.09q-8.59,16-17.6,31.7c-6.21,10.79-12.38,21.62-19.18,32.1-3.11,4.79-5.48,10.66-8.2,15.84-3.71,7.06-8.27,13.91-12.28,20.91-3.16,5.51-7.22,10.53-9.5,16.66-.88,2.34-2.74,4.72-4.77,7.24,28.87,0,57.23-1.18,85.45.26,47.68,2.44,95.37.58,143,2,22.18.68,44.34,1.85,66.53,1.55,4.7-.06,5.67,4,6.51,5.88,4.16,9.39,9.94,17.87,14.76,26.85,2.77,5.18,5.82,10.35,8.88,15.44,1.33,2.19,1.19,2.7-1.23,3-1.16.11-2.33,0-3.5,0q-202,0-404,0c-1.75,0-4.56.91-5-.59-.63-2,.45-4.33,1.74-6.46,4.38-7.19,9.09-14.17,13-21.67,4.29-8.25,9.19-16.18,13.84-24.23,3-5.18,6-10.39,9.07-15.5,5.33-8.72,10.93-17.37,15.63-26.36,4.4-8.43,9-16.72,13.82-24.89s9.21-16.12,13.85-24.13c3-5.11,5.52-10.62,9.32-15.31,2.34-2.88,3.1-6.66,5.16-9.86,4.69-7.27,9.28-14.68,13.48-22.19,4.81-8.6,9.51-17.37,14.25-26,3.84-7,8.51-13.89,12.34-20.94,5.5-10.12,12.17-19.51,17.41-29.81a235.73,235.73,0,0,1,14-24.39c3.4-5.09,6-11.16,9.1-16.47,3.81-6.46,7.53-13,11.43-19.48,3.11-5.13,6.44-10.19,8.94-15.61,2-4.35,4.83-8.14,7.13-12.26,5.06-9,10.37-18,15.57-26.88,3.21-5.51,6.58-11.34,9.88-16.8,6.39-10.58,12.26-21.58,18.58-32.28,3.09-5.24,6.63-10.31,8.93-15.89s6.7-9.86,8.09-15.75c.36-1.49,1.4-1.16,2.3-1.13a4.25,4.25,0,0,1,3.64,1.94c8.5,14,15.67,28.7,24.36,42.65,6.58,10.57,12.68,21.68,18.71,32.72Q470.62,368,481,385.2c5.4,8.92,10.33,18.3,15.56,27.35,3.77,6.52,7.55,13.26,11.41,19.76,3.75,6.32,7.23,13.17,11.33,19.17,3.91,5.7,6.17,12.25,10.58,17.75,3.19,4,4.72,9.58,7.73,14.1a258.19,258.19,0,0,1,13.48,23.1c3.46,6.58,7.44,13,11.2,19.29,6,10.06,10.62,20.88,17.58,30.5,4.27,5.91,7.28,13.08,11.23,19.36,6.57,10.44,11.88,21.56,18.38,32,4.62,7.45,9.68,14.78,13.5,22.59,2.84,5.79,6.55,11,9.31,16.9,3.14,6.66,7.21,13,11,19.48,3,5.26,7.27,10,9.32,15.6,1.59,4.35,5.13,7,6.8,11.25,2.24,5.67,6.64,10.46,9.2,16,2.84,6.17,7,11.44,10.15,17.39Q680.85,730.84,683.21,734.65Z" transform="translate(-18 -17)"/><path class="cls-1" d="M816,360.73c6.2,8.57,11.37,17.77,17.19,26.55,4.43,6.69,6.62,14.91,9.52,22.56.85,2.26.57,4.26-3.15,4.2-14.49-.22-29-.17-43.47,0-2.22,0-3.09-1-4.17-2.46-4.11-5.62-6.93-12-10.52-17.93A139.7,139.7,0,0,0,766,372.9c-7.55-8.48-15.23-16.81-24.09-23.93-3.78-3-8.32-5.26-12-8.28-6-5-12.83-8.44-19.34-12.44-9.81-6-20.63-9.77-31.5-13.51-7.07-2.43-14.43-3.22-21.29-5.31-6-1.84-11.68,0-17.32-1.84.73-1.32,2.46.19,3-1.49H594.49c.81,1.94,3.2-.24,4,1.86-2.07,0-4,0-6,0-11.41.35-22.25,3-33.14,6.5-7.9,2.53-15.46,5.85-23.11,8.8s-14.24,7.9-21.12,12.27c-4.54,2.87-8.72,6.29-13.12,9.38-2.36,1.67-4.52,1.24-6.08-1.21-2-3.19-4-6.41-5.91-9.68-3.66-6.32-7-12.82-11-18.94-1.11-1.72-1.57-3.71-2.79-5.44-1-1.42-.8-4.07,2.62-6.06,5.17-3,9.73-7.38,15.06-10.39,6.72-3.8,13.41-7.66,20.16-11.41,8.41-4.66,17.71-6.82,26.5-10.23,7.09-2.75,14.89-4.65,22.25-6.94,23.32-7.24,47-3.66,70.58-4.63,4-.16,8.07.47,12-.12,9.08-1.37,17.72,1.69,26.08,3.56,14.05,3.15,27.36,9.45,41.22,13.65,7.26,2.2,13.77,5.87,20.27,9.25,9.48,4.92,18.29,11.29,26.87,17.73,9.54,7.17,19.36,14,27.69,22.77A325.3,325.3,0,0,1,816,360.73Z" transform="translate(-18 -17)"/><path class="cls-1" d="M852.39,503.83c4.57,0,5.87,1.12,5.61,5.65-.4,7.14-.1,14.32-.11,21.49,0,7.86-3.22,15.11-4.29,22.75-.86,6.25-3.35,12-4.88,18s-4.42,11.89-6.8,17.78c-2.52,6.26-4.94,12.55-7.78,18.71-1.94,4.21-4.76,7.68-7,11.58a201,201,0,0,1-12.44,19.49c-3.73,5-7.61,10-11.66,14.8-6.07,7.19-12.2,14.37-19.11,20.62-8.47,7.65-17.87,14.29-27,21.14-7.34,5.48-15.26,10-23.23,14.61-4,2.27-8.47,4.11-12.28,7.14-3.21,2.55-8.46-1.55-10.43-7.2-2.35-6.74-6.48-12.49-10-18.57-2-3.44-3.51-7-6.65-9.84-.93-.83-1.64-4,2.69-5.48,8.18-2.75,15.56-7.71,23-12.3,4.1-2.53,8.55-4.84,12.24-7.71,8.22-6.38,16.37-12.92,23.72-20.47,11.77-12.09,22.55-24.94,30.6-39.7,4.71-8.65,9.81-17.19,12.7-26.91,1.67-5.61,4.4-11,5.79-16.82.24-1,2.13-.41,1.6-2.7H624.21c-6.83,0-9.62-2.22-12.35-8.34-2.27-5.07-5.7-9.63-7.89-14.72-2.42-5.65-6.78-10.06-9.14-15.71-1-2.4-4.58-3.26-4-6.83.49-2.77.8-3.2,3-1.26,1.7,1.49,3.41.81,5,.82Q725.66,504,852.39,503.83Z" transform="translate(-18 -17)"/><path class="cls-1" d="M984.88,471.94a2.54,2.54,0,0,1-.49-1h0a17.45,17.45,0,0,1,0-2.8c-.52-9.62-.57-19.27-1.8-28.85a480.07,480.07,0,0,0-57.76-175.5A489,489,0,0,0,719.18,66.94,474,474,0,0,0,607.43,27.08c-18-4-36.22-7.34-54.73-8.67-7.92-.57-15.88-.26-23.76-1.41h-6c-2.21,1-4.54.27-6.8.51-1.73-.24-3.55.52-5.2-.51h-19c-1.65,1-3.48.27-5.21.51-2.26-.24-4.59.51-6.79-.51h-7c-.84.77-1.88.48-2.85.5a293.59,293.59,0,0,0-41.25,3.28C370.14,30,314.74,48.66,263,78A489.06,489.06,0,0,0,69.07,280.47a472.85,472.85,0,0,0-41,114c-4,18-7.49,36.2-8.69,54.73-.47,7.25-.19,14.56-1.4,21.76v10c1.07,2,.25,4.18.51,6.26-.25,2.91.54,5.88-.51,8.74v9c1,2.87.26,5.84.51,8.76-.26,2.07.56,4.23-.51,6.24v10c1.43,10.52.9,21.16,2.26,31.71A483.95,483.95,0,0,0,177.6,861.36a487.14,487.14,0,0,0,103.87,71.46,470.11,470.11,0,0,0,114,41c18,4,36.2,7.49,54.73,8.7,6.92.46,13.9.11,20.76,1.4h4a2.3,2.3,0,0,1,3,0h5c2-1.07,4.08-.25,6.1-.51,2.3.25,4.67-.56,6.9.51h11c2.2-1,4.54-.27,6.8-.51,1.72.24,3.55-.52,5.2.51h6a2.3,2.3,0,0,1,3,0h2c1.35-1,2.9-.42,4.35-.49,10.79-.5,21.6-.71,32.33-2.21,73.11-10.2,140.63-35.34,202.23-76.08A489.95,489.95,0,0,0,934,720a472.6,472.6,0,0,0,40.74-113.54c4-18,7.5-36.2,8.7-54.73.47-7.25.19-14.56,1.4-21.76v-10c-1.06-1.89-.25-3.94-.51-5.89.24-1.7-.52-3.49.51-5.11v-17c-1-1.62-.27-3.42-.51-5.11.26-2-.55-4,.51-5.89ZM502,946.88c-245.81.55-446.63-199.19-447-444.61C54.6,255,253.89,54.18,499.86,54c248.07-.18,447.58,198.7,448,446.62C948.33,746.34,748.51,946.34,502,946.88Z" transform="translate(-18 -17)"/><path class="cls-2" d="M984.39,470.89c-1.56-3.8-.87-8-1.28-11.88C965.34,291.56,883.54,165.13,739,79.52c-51.16-30.3-107-48.4-165.82-57.26A419.38,419.38,0,0,0,531.42,18c-.9,0-2.06.41-2.48-1,7.88,1.15,15.84.84,23.76,1.41,18.51,1.33,36.68,4.68,54.73,8.67A474,474,0,0,1,719.18,66.94a489,489,0,0,1,205.65,196.8,480.07,480.07,0,0,1,57.76,175.5c1.23,9.58,1.28,19.23,1.8,28.85A17.45,17.45,0,0,0,984.39,470.89Z" transform="translate(-18 -17)"/><path class="cls-3" d="M18.91,486.84c-.18,3,.94,6.22-.91,9.1v-9Q18.38,486.25,18.91,486.84Z" transform="translate(-18 -17)"/><path class="cls-3" d="M18,504.94c1.85,2.88.74,6.06.91,9.11q-.53.58-.91-.11Z" transform="translate(-18 -17)"/><path class="cls-4" d="M486.83,17.86c-2.29-.32-4.82,1.29-6.88-.86h7q.56.37.32.63A.6.6,0,0,1,486.83,17.86Z" transform="translate(-18 -17)"/><path class="cls-4" d="M522.94,17c-2.06,2.14-4.59.54-6.88.86-.43-.14-.58-.31-.48-.52s.24-.34.36-.34Z" transform="translate(-18 -17)"/><path class="cls-5" d="M488.85,983c2.38.16,4.92-.89,7.09.91h-7q-.5-.25-.38-.57C488.65,983.08,488.75,983,488.85,983Z" transform="translate(-18 -17)"/><path class="cls-5" d="M506.94,983.88c2.17-1.8,4.71-.75,7.09-.91q.44.35.25.64c-.12.18-.23.27-.34.27Z" transform="translate(-18 -17)"/><path class="cls-6" d="M18.91,486.84a7,7,0,0,1-.91.1v-6C20,482.64,18.57,484.88,18.91,486.84Z" transform="translate(-18 -17)"/><path class="cls-7" d="M984,486.83c.29-2-1.16-4.18.88-5.89v6C984.51,487.47,984.23,487.4,984,486.83Z" transform="translate(-18 -17)"/><path class="cls-6" d="M18,513.94a7.11,7.11,0,0,1,.91.11c-.34,2,1.13,4.2-.91,5.89Z" transform="translate(-18 -17)"/><path class="cls-7" d="M984.88,519.94c-2-1.7-.59-3.92-.88-5.89.22-.6.52-.61.88-.11Z" transform="translate(-18 -17)"/><path class="cls-8" d="M488.85,983a8.36,8.36,0,0,1,.09.91h-6C484.66,981.92,486.88,983.26,488.85,983Z" transform="translate(-18 -17)"/><path class="cls-9" d="M486.83,17.86q.08-.43.12-.86h5C490.45,18.57,488.58,17.89,486.83,17.86Z" transform="translate(-18 -17)"/><path class="cls-9" d="M515.94,17a8.36,8.36,0,0,0,.12.86c-1.76,0-3.62.71-5.11-.86Z" transform="translate(-18 -17)"/><path class="cls-10" d="M984,486.83l.88.11v5C983.32,490.45,984,488.58,984,486.83Z" transform="translate(-18 -17)"/><path class="cls-10" d="M984.88,513.94,984,514c0-1.75-.69-3.62.88-5.11Z" transform="translate(-18 -17)"/><path class="cls-8" d="M513.94,983.88A8.09,8.09,0,0,1,514,983c1.65.22,3.55-.89,4.91.91Z" transform="translate(-18 -17)"/><path class="cls-11" d="M474.94,983.88c1-1.71,2-1.43,3,0Z" transform="translate(-18 -17)"/><path class="cls-11" d="M524.94,983.88c1-1.43,2-1.71,3,0Z" transform="translate(-18 -17)"/><path class="cls-2" d="M683.21,734.65c1.86,3,.21,3.28-2.29,3.28-18,0-36-.17-54,.11-3.43,0-4.22-2.77-4.72-4.09-3-7.93-8.51-14.29-12.46-21.59-3.67-6.78-7.13-13.68-10.85-20.43-3.53-6.4-6.69-13-10.83-19.1a165.43,165.43,0,0,1-8.88-15.08c-4.63-8.69-9.85-17.07-14.2-25.89a225.26,225.26,0,0,0-11.41-19.55c-3.52-5.64-6.31-11.67-10-17.21-3.28-5-5.74-10.43-8.68-15.61q-6.07-10.7-12.33-21.26-5.75-9.72-11.65-19.34c-5.44-8.84-9.21-18.61-15.58-27-3.67-4.82-6.34-10.4-9.39-15.67-2.94-5.06-5.23-10.63-8.87-15.1-2.84-3.48-3.92-7.57-6.11-11.2-6.47-10.74-12.76-21.59-19.26-32.31-5-8.32-9.85-17-14.33-25.69-4.37-8.54-9.83-16.52-14.25-25.05-2.36-4.54-6.2-8.06-8-13.37-5,8-9.65,15.34-13.61,23.12a136.86,136.86,0,0,1-8.66,15.24c-4,5.91-7.23,12.32-11,18.36s-7.24,12.28-10.86,18.43c-6.91,11.76-12.47,24.23-20.31,35.55-4.36,6.29-7.66,13.56-11.7,20.22-5.37,8.85-10.27,18-15.44,26.93-5.26,9.11-11.13,17.88-16.09,27.09q-8.59,16-17.6,31.7c-6.21,10.79-12.38,21.62-19.18,32.1-3.11,4.79-5.48,10.66-8.2,15.84-3.71,7.06-8.27,13.91-12.28,20.91-3.16,5.51-7.22,10.53-9.5,16.66-.88,2.34-2.74,4.72-4.77,7.24,28.87,0,57.23-1.18,85.45.26,47.68,2.44,95.37.58,143,2,22.18.68,44.34,1.85,66.53,1.55,4.7-.06,5.67,4,6.51,5.88,4.16,9.39,9.94,17.87,14.76,26.85,2.77,5.18,5.82,10.35,8.88,15.44,1.33,2.19,1.19,2.7-1.23,3-1.16.11-2.33,0-3.5,0q-202,0-404,0c-1.75,0-4.56.91-5-.59-.63-2,.45-4.33,1.74-6.46,4.38-7.19,9.09-14.17,13-21.67,4.29-8.25,9.19-16.18,13.84-24.23,3-5.18,6-10.39,9.07-15.5,5.33-8.72,10.93-17.37,15.63-26.36,4.4-8.43,9-16.72,13.82-24.89s9.21-16.12,13.85-24.13c3-5.11,5.52-10.62,9.32-15.31,2.34-2.88,3.1-6.66,5.16-9.86,4.69-7.27,9.28-14.68,13.48-22.19,4.81-8.6,9.51-17.37,14.25-26,3.84-7,8.51-13.89,12.34-20.94,5.5-10.12,12.17-19.51,17.41-29.81a235.73,235.73,0,0,1,14-24.39c3.4-5.09,6-11.16,9.1-16.47,3.81-6.46,7.53-13,11.43-19.48,3.11-5.13,6.44-10.19,8.94-15.61,2-4.35,4.83-8.14,7.13-12.26,5.06-9,10.37-18,15.57-26.88,3.21-5.51,6.58-11.34,9.88-16.8,6.39-10.58,12.26-21.58,18.58-32.28,3.09-5.24,6.63-10.31,8.93-15.89s6.7-9.86,8.09-15.75c.36-1.49,1.4-1.16,2.3-1.13a4.25,4.25,0,0,1,3.64,1.94c8.5,14,15.67,28.7,24.36,42.65,6.58,10.57,12.68,21.68,18.71,32.72Q470.62,368,481,385.2c5.4,8.92,10.33,18.3,15.56,27.35,3.77,6.52,7.55,13.26,11.41,19.76,3.75,6.32,7.23,13.17,11.33,19.17,3.91,5.7,6.17,12.25,10.58,17.75,3.19,4,4.72,9.58,7.73,14.1a258.19,258.19,0,0,1,13.48,23.1c3.46,6.58,7.44,13,11.2,19.29,6,10.06,10.62,20.88,17.58,30.5,4.27,5.91,7.28,13.08,11.23,19.36,6.57,10.44,11.88,21.56,18.38,32,4.62,7.45,9.68,14.78,13.5,22.59,2.84,5.79,6.55,11,9.31,16.9,3.14,6.66,7.21,13,11,19.48,3,5.26,7.27,10,9.32,15.6,1.59,4.35,5.13,7,6.8,11.25,2.24,5.67,6.64,10.46,9.2,16,2.84,6.17,7,11.44,10.15,17.39Q680.85,730.84,683.21,734.65Z" transform="translate(-18 -17)"/><path class="cls-2" d="M476.25,309.65c-1-1.42-.8-4.07,2.62-6.06,5.17-3,9.73-7.38,15.06-10.39,6.72-3.8,13.41-7.66,20.16-11.41,8.41-4.66,17.71-6.82,26.5-10.23,7.09-2.75,14.89-4.65,22.25-6.94,23.32-7.24,47-3.66,70.58-4.63,4-.16,8.07.47,12-.12,9.08-1.37,17.72,1.69,26.08,3.56,14.05,3.15,27.36,9.45,41.22,13.65,7.26,2.2,13.77,5.87,20.27,9.25,9.48,4.92,18.29,11.29,26.87,17.73,9.54,7.17,19.36,14,27.69,22.77A325.3,325.3,0,0,1,816,360.73c6.2,8.57,11.37,17.77,17.19,26.55,4.43,6.69,6.62,14.91,9.52,22.56.85,2.26.57,4.26-3.15,4.2-14.49-.22-29-.17-43.47,0-2.22,0-3.09-1-4.17-2.46-4.11-5.62-6.93-12-10.52-17.93A139.7,139.7,0,0,0,766,372.9c-7.55-8.48-15.23-16.81-24.09-23.93-3.78-3-8.32-5.26-12-8.28-6-5-12.83-8.44-19.34-12.44-9.81-6-20.63-9.77-31.5-13.51-7.07-2.43-14.43-3.22-21.29-5.31-6-1.84-11.68,0-17.32-1.84.73-1.32,2.46.19,3-1.49H594.49c.81,1.94,3.2-.24,4,1.86-2.07,0-4,0-6,0-11.41.35-22.25,3-33.14,6.5-7.9,2.53-15.46,5.85-23.11,8.8s-14.24,7.9-21.12,12.27c-4.54,2.87-8.72,6.29-13.12,9.38-2.36,1.67-4.52,1.24-6.08-1.21-2-3.19-4-6.41-5.91-9.68-3.66-6.32-7-12.82-11-18.94C477.93,313.37,477.47,311.38,476.25,309.65Z" transform="translate(-18 -17)"/><path class="cls-2" d="M858,509.48c-.4,7.14-.1,14.32-.11,21.49,0,7.86-3.22,15.11-4.29,22.75-.86,6.25-3.35,12-4.88,18s-4.42,11.89-6.8,17.78c-2.52,6.26-4.94,12.55-7.78,18.71-1.94,4.21-4.76,7.68-7,11.58a201,201,0,0,1-12.44,19.49c-3.73,5-7.61,10-11.66,14.8-6.07,7.19-12.2,14.37-19.11,20.62-8.47,7.65-17.87,14.29-27,21.14-7.34,5.48-15.26,10-23.23,14.61-4,2.27-8.47,4.11-12.28,7.14-3.21,2.55-8.46-1.55-10.43-7.2-2.35-6.74-6.48-12.49-10-18.57-2-3.44-3.51-7-6.65-9.84-.93-.83-1.64-4,2.69-5.48,8.18-2.75,15.56-7.71,23-12.3,4.1-2.53,8.55-4.84,12.24-7.71,8.22-6.38,16.37-12.92,23.72-20.47,11.77-12.09,22.55-24.94,30.6-39.7,4.71-8.65,9.81-17.19,12.7-26.91,1.67-5.61,4.4-11,5.79-16.82.24-1,2.13-.41,1.6-2.7H624.21c-6.83,0-9.62-2.22-12.35-8.34-2.27-5.07-5.7-9.63-7.89-14.72-2.42-5.65-6.78-10.06-9.14-15.71-1-2.4-4.58-3.26-4-6.83.49-2.77.8-3.2,3-1.26,1.7,1.49,3.41.81,5,.82q126.73.09,253.46-.06C857,503.82,858.26,505,858,509.48Z" transform="translate(-18 -17)"/><path class="cls-1" d="M680.92,737.93c-18,0-36-.17-54,.11-3.43,0-4.22-2.77-4.72-4.09-3-7.93-8.51-14.29-12.46-21.59-3.67-6.78-7.13-13.68-10.85-20.43-3.53-6.4-6.69-13-10.83-19.1a165.43,165.43,0,0,1-8.88-15.08c-4.63-8.69-9.85-17.07-14.2-25.89a225.26,225.26,0,0,0-11.41-19.55c-3.52-5.64-6.31-11.67-10-17.21-3.28-5-5.74-10.43-8.68-15.61q-6.07-10.7-12.33-21.26-5.75-9.72-11.65-19.34c-5.44-8.84-9.21-18.61-15.58-27-3.67-4.82-6.34-10.4-9.39-15.67-2.94-5.06-5.23-10.63-8.87-15.1-2.84-3.48-3.92-7.57-6.11-11.2-6.47-10.74-12.76-21.59-19.26-32.31-5-8.32-9.85-17-14.33-25.69-4.37-8.54-9.83-16.52-14.25-25.05-2.36-4.54-6.2-8.06-8-13.37-5,8-9.65,15.34-13.61,23.12a136.86,136.86,0,0,1-8.66,15.24c-4,5.91-7.23,12.32-11,18.36s-7.24,12.28-10.86,18.43c-6.91,11.76-12.47,24.23-20.31,35.55-4.36,6.29-7.66,13.56-11.7,20.22-5.37,8.85-10.27,18-15.44,26.93-5.26,9.11-11.13,17.88-16.09,27.09q-8.59,16-17.6,31.7c-6.21,10.79-12.38,21.62-19.18,32.1-3.11,4.79-5.48,10.66-8.2,15.84-3.71,7.06-8.27,13.91-12.28,20.91-3.16,5.51-7.22,10.53-9.5,16.66-.88,2.34-2.74,4.72-4.77,7.24,28.87,0,57.23-1.18,85.45.26,47.68,2.44,95.37.58,143,2,22.18.68,44.34,1.85,66.53,1.55,4.7-.06,5.67,4,6.51,5.88,4.16,9.39,9.94,17.87,14.76,26.85,2.77,5.18,5.82,10.35,8.88,15.44,1.33,2.19,1.19,2.7-1.23,3-1.16.11-2.33,0-3.5,0q-202,0-404,0c-1.75,0-4.56.91-5-.59-.63-2,.45-4.33,1.74-6.46,4.38-7.19,9.09-14.17,13-21.67,4.29-8.25,9.19-16.18,13.84-24.23,3-5.18,6-10.39,9.07-15.5,5.33-8.72,10.93-17.37,15.63-26.36,4.4-8.43,9-16.72,13.82-24.89s9.21-16.12,13.85-24.13c3-5.11,5.52-10.62,9.32-15.31,2.34-2.88,3.1-6.66,5.16-9.86,4.69-7.27,9.28-14.68,13.48-22.19,4.81-8.6,9.51-17.37,14.25-26,3.84-7,8.51-13.89,12.34-20.94,5.5-10.12,12.17-19.51,17.41-29.81a235.73,235.73,0,0,1,14-24.39c3.4-5.09,6-11.16,9.1-16.47,3.81-6.46,7.53-13,11.43-19.48,3.11-5.13,6.44-10.19,8.94-15.61,2-4.35,4.83-8.14,7.13-12.26,5.06-9,10.37-18,15.57-26.88,3.21-5.51,6.58-11.34,9.88-16.8,6.39-10.58,12.26-21.58,18.58-32.28,3.09-5.24,6.63-10.31,8.93-15.89s6.7-9.86,8.09-15.75c.36-1.49,1.4-1.16,2.3-1.13a4.25,4.25,0,0,1,3.64,1.94c8.5,14,15.67,28.7,24.36,42.65,6.58,10.57,12.68,21.68,18.71,32.72Q470.62,368,481,385.2c5.4,8.92,10.33,18.3,15.56,27.35,3.77,6.52,7.55,13.26,11.41,19.76,3.75,6.32,7.23,13.17,11.33,19.17,3.91,5.7,6.17,12.25,10.58,17.75,3.19,4,4.72,9.58,7.73,14.1a258.19,258.19,0,0,1,13.48,23.1c3.46,6.58,7.44,13,11.2,19.29,6,10.06,10.62,20.88,17.58,30.5,4.27,5.91,7.28,13.08,11.23,19.36,6.57,10.44,11.88,21.56,18.38,32,4.62,7.45,9.68,14.78,13.5,22.59,2.84,5.79,6.55,11,9.31,16.9,3.14,6.66,7.21,13,11,19.48,3,5.26,7.27,10,9.32,15.6,1.59,4.35,5.13,7,6.8,11.25,2.24,5.67,6.64,10.46,9.2,16,2.84,6.17,7,11.44,10.15,17.39q2.09,4,4.45,7.77C685.07,737.66,683.42,737.93,680.92,737.93Z" transform="translate(-18 -17)"/><path class="cls-1" d="M858,509.48c-.4,7.14-.1,14.32-.11,21.49,0,7.86-3.22,15.11-4.29,22.75-.86,6.25-3.35,12-4.88,18s-4.42,11.89-6.8,17.78c-2.52,6.26-4.94,12.55-7.78,18.71-1.94,4.21-4.76,7.68-7,11.58a201,201,0,0,1-12.44,19.49c-3.73,5-7.61,10-11.66,14.8-6.07,7.19-12.2,14.37-19.11,20.62-8.47,7.65-17.87,14.29-27,21.14-7.34,5.48-15.26,10-23.23,14.61-4,2.27-8.47,4.11-12.28,7.14-3.21,2.55-8.46-1.55-10.43-7.2-2.35-6.74-6.48-12.49-10-18.57-2-3.44-3.51-7-6.65-9.84-.93-.83-1.64-4,2.69-5.48,8.18-2.75,15.56-7.71,23-12.3,4.1-2.53,8.55-4.84,12.24-7.71,8.22-6.38,16.37-12.92,23.72-20.47,11.77-12.09,22.55-24.94,30.6-39.7,4.71-8.65,9.81-17.19,12.7-26.91,1.67-5.61,4.4-11,5.79-16.82.24-1,2.13-.41,1.6-2.7H624.21c-6.83,0-9.62-2.22-12.35-8.34-2.27-5.07-5.7-9.63-7.89-14.72-2.42-5.65-6.78-10.06-9.14-15.71-1-2.4-4.58-3.26-4-6.83.49-2.77.8-3.2,3-1.26,1.7,1.49,3.41.81,5,.82q126.73.09,253.46-.06C857,503.82,858.26,505,858,509.48Z" transform="translate(-18 -17)"/><path class="cls-1" d="M839.59,414c-14.49-.22-29-.17-43.47,0-2.22,0-3.09-1-4.17-2.46-4.11-5.62-6.93-12-10.52-17.93A139.7,139.7,0,0,0,766,372.9c-7.55-8.48-15.23-16.81-24.09-23.93-3.78-3-8.32-5.26-12-8.28-6-5-12.83-8.44-19.34-12.44-9.81-6-20.63-9.77-31.5-13.51-7.07-2.43-14.43-3.22-21.29-5.31-6-1.84-11.68,0-17.32-1.84.73-1.32,2.46.19,3-1.49H594.49c.81,1.94,3.2-.24,4,1.86-2.07,0-4,0-6,0-11.41.35-22.25,3-33.14,6.5-7.9,2.53-15.46,5.85-23.11,8.8s-14.24,7.9-21.12,12.27c-4.54,2.87-8.72,6.29-13.12,9.38-2.36,1.67-4.52,1.24-6.08-1.21-2-3.19-4-6.41-5.91-9.68-3.66-6.32-7-12.82-11-18.94-1.11-1.72-1.57-3.71-2.79-5.44-1-1.42-.8-4.07,2.62-6.06,5.17-3,9.73-7.38,15.06-10.39,6.72-3.8,13.41-7.66,20.16-11.41,8.41-4.66,17.71-6.82,26.5-10.23,7.09-2.75,14.89-4.65,22.25-6.94,23.32-7.24,47-3.66,70.58-4.63,4-.16,8.07.47,12-.12,9.08-1.37,17.72,1.69,26.08,3.56,14.05,3.15,27.36,9.45,41.22,13.65,7.26,2.2,13.77,5.87,20.27,9.25,9.48,4.92,18.29,11.29,26.87,17.73,9.54,7.17,19.36,14,27.69,22.77A325.3,325.3,0,0,1,816,360.73c6.2,8.57,11.37,17.77,17.19,26.55,4.43,6.69,6.62,14.91,9.52,22.56C843.59,412.1,843.31,414.1,839.59,414Z" transform="translate(-18 -17)"/></svg>